<svg width="130" height="130" viewBox="0 0 130 130" fill="none" xmlns="http://www.w3.org/2000/svg">
<g clip-path="url(#clip0_1037_60)">
<circle cx="65" cy="65" r="65" fill="#007CC4"/>
<mask id="mask0_1037_60" style="mask-type:alpha" maskUnits="userSpaceOnUse" x="0" y="0" width="130" height="130">
<circle cx="65" cy="65" r="65" fill="#007CC4"/>
</mask>
<g mask="url(#mask0_1037_60)">
<circle cx="81.681" cy="24.159" r="28.1858" fill="url(#paint0_linear_1037_60)"/>
<circle opacity="0.6" cx="45.8813" cy="25.659" r="32.3998" fill="url(#paint1_linear_1037_60)"/>
<circle cx="40.9257" cy="66.926" r="44.7778" fill="url(#paint2_linear_1037_60)"/>
<circle cx="108.949" cy="66.5783" r="52.134" fill="url(#paint3_linear_1037_60)"/>
<circle cx="82.6039" cy="114.382" r="30.6039" fill="url(#paint4_linear_1037_60)"/>
<circle cx="19.53" cy="108.122" r="47.4558" fill="url(#paint5_linear_1037_60)"/>
</g>
<path d="M58.8493 20.6731C59.6991 19.3854 61.3671 18.8137 62.8052 19.3173L69.1706 21.546L69.5828 22.577C69.723 22.9274 69.7419 23.3168 69.637 23.6907L68.3891 28.1397L33.4048 81.1487C32.5545 82.4372 30.8852 83.0087 29.4467 82.5039L23.7162 80.4927C21.8749 79.8465 21.185 77.743 22.2734 76.0938L58.8493 20.6731Z" fill="white"/>
<path d="M94.8862 48.9255C95.7382 47.6414 97.4043 47.0731 98.84 47.577L104.568 49.5872C106.412 50.2344 107.101 52.3431 106.006 53.9927L69.8523 108.489C69.0004 109.773 67.3342 110.341 65.8985 109.838L60.1706 107.827C58.3263 107.18 57.6379 105.071 58.7322 103.422L94.8862 48.9255Z" fill="white"/>
<path d="M57.9671 25.1921C57.9616 23.6628 59.0755 22.3889 60.5989 22.1822L67.499 21.2461C69.035 21.0377 70.4361 22.2498 70.4416 23.7917L70.7276 103.899C70.7331 105.429 69.6192 106.703 68.0957 106.909L61.9287 107.746C60.0087 108.006 58.2573 106.491 58.2504 104.564L57.9671 25.1921Z" fill="white"/>
</g>
<defs>
<linearGradient id="paint0_linear_1037_60" x1="78.0937" y1="14.9345" x2="93.1854" y2="31.0616" gradientUnits="userSpaceOnUse">
<stop stop-color="#0173B6"/>
<stop offset="1" stop-color="#1A8CCE"/>
</linearGradient>
<linearGradient id="paint1_linear_1037_60" x1="41.7577" y1="15.0554" x2="74.3538" y2="33.3171" gradientUnits="userSpaceOnUse">
<stop stop-color="#007CC4"/>
<stop offset="1" stop-color="#299EE3"/>
</linearGradient>
<linearGradient id="paint2_linear_1037_60" x1="25.9998" y1="42.8519" x2="80.2759" y2="77.5098" gradientUnits="userSpaceOnUse">
<stop stop-color="#0079C4"/>
<stop offset="1" stop-color="#1A6ECE"/>
</linearGradient>
<linearGradient id="paint3_linear_1037_60" x1="78.3005" y1="94.0672" x2="104.841" y2="64.3666" gradientUnits="userSpaceOnUse">
<stop stop-color="#009DC4"/>
<stop offset="1" stop-color="#1A8CCE"/>
</linearGradient>
<linearGradient id="paint4_linear_1037_60" x1="78.7089" y1="104.366" x2="109.498" y2="121.615" gradientUnits="userSpaceOnUse">
<stop stop-color="#007CC4"/>
<stop offset="1" stop-color="#1BB4CF"/>
</linearGradient>
<linearGradient id="paint5_linear_1037_60" x1="13.4901" y1="92.5914" x2="61.2335" y2="119.339" gradientUnits="userSpaceOnUse">
<stop stop-color="#007CC4"/>
<stop offset="1" stop-color="#1BB4CF"/>
</linearGradient>
<clipPath id="clip0_1037_60">
<rect width="130" height="130" fill="white"/>
</clipPath>
</defs>
</svg>
